<?xml version="1.0" encoding="UTF-8"?>
<svg width="800" height="600" version="1.1" xmlns="http://www.w3.org/2000/svg">
  <rect width="100%" height="100%" fill="#001f3f"/>
  <!-- Main Singapore Island -->
  <path d="M200,300 C250,280 300,270 350,260 C400,250 450,245 500,245 
           C550,245 600,250 650,270 C700,290 720,320 730,350 
           C740,380 735,410 720,440 C705,470 680,490 650,500 
           C620,510 580,515 540,515 C500,515 460,510 420,500 
           C380,490 340,475 300,455 C260,435 230,410 210,380 
           C190,350 185,320 190,290 C195,260 210,240 230,220" 
        fill="#ffffff" stroke="#00ff00" stroke-width="2"/>
  <!-- Surrounding Islands -->
  <circle cx="180" cy="280" r="8" fill="#ffffff"/>
  <circle cx="720" cy="420" r="6" fill="#ffffff"/>
  <circle cx="650" cy="220" r="5" fill="#ffffff"/>
  <!-- Water Features -->
  <path d="M300,350 Q400,330 500,340 T700,370" 
        fill="none" stroke="#0099cc" stroke-width="1.5"/>
  <!-- Labels -->
  <text x="400" y="380" fill="#ffcc00" font-family="Arial" font-size="24">Singapore</text>
  <text x="300" y="420" fill="#99ccff" font-family="Arial" font-size="16">Singapore Strait</text>
</svg>
